<?xml version="1.0" encoding="UTF-8" standalone="no"?>
<svg
   version="1.1"
   id="Layer_1"
   x="0px"
   y="0px"
   width="100%"
   viewBox="0 0 1536 1024"
   enable-background="new 0 0 1536 1024"
   xml:space="preserve"
   sodipodi:docname="analyzershub-logo-full.svg"
   inkscape:version="1.4.2 (f4327f4, 2025-05-13)"
   xmlns:inkscape="http://www.inkscape.org/namespaces/inkscape"
   xmlns:sodipodi="http://sodipodi.sourceforge.net/DTD/sodipodi-0.dtd"
   xmlns="http://www.w3.org/2000/svg"
   xmlns:svg="http://www.w3.org/2000/svg"><defs
   id="defs96" /><sodipodi:namedview
   id="namedview96"
   pagecolor="#ffffff"
   bordercolor="#000000"
   borderopacity="0.25"
   inkscape:showpageshadow="2"
   inkscape:pageopacity="0.0"
   inkscape:pagecheckerboard="0"
   inkscape:deskcolor="#d1d1d1"
   inkscape:zoom="0.83496094"
   inkscape:cx="768.29942"
   inkscape:cy="512"
   inkscape:window-width="1920"
   inkscape:window-height="1057"
   inkscape:window-x="-8"
   inkscape:window-y="-8"
   inkscape:window-maximized="1"
   inkscape:current-layer="Layer_1" />

<path
   fill="#272E37"
   opacity="1.000000"
   stroke="none"
   d=" M352.473419,539.142029   C351.876862,537.114380 351.280304,535.086731 350.351318,532.410095   C349.231689,528.108398 348.444458,524.455750 347.741211,520.474609   C347.857330,519.473328 347.889496,518.800354 347.939789,517.656372   C347.965790,514.249695 348.204010,511.287445 347.868073,508.391815   C347.733795,507.234528 346.333466,506.224152 345.086426,505.269226   C339.771179,505.391571 334.878937,505.391571 330.072876,505.391571   C330.072876,502.562164 330.072876,500.359283 330.072876,497.761536   C334.944366,497.761536 339.416992,497.461823 343.830627,497.843811   C348.469238,498.245239 350.730713,496.771942 350.439819,491.696167   C351.634674,488.471924 352.576630,485.483093 353.739502,482.227722   C356.750366,476.762573 359.540283,471.563965 362.671661,466.186310   C367.799866,460.455475 372.586639,454.903687 377.660095,449.281921   C382.143768,446.147186 386.340759,443.082397 390.883911,440.007812   C395.822174,438.025238 400.414307,436.052490 405.352966,434.061401   C406.549774,433.693817 407.399994,433.344574 408.636108,432.990356   C414.292236,431.964661 419.562500,430.943909 425.220276,429.984894   C426.391937,430.028107 427.176117,430.009552 428.428955,430.002625   C433.610535,430.012878 438.323486,430.011475 443.311340,430.176025   C444.633484,430.473694 445.680725,430.605408 447.155884,430.822205   C452.859467,432.212280 458.135193,433.517273 463.691772,434.976562   C464.978943,435.424683 465.985229,435.718475 467.202301,436.290802   C473.335907,439.737518 479.258728,442.905670 485.322876,446.358093   C487.646484,448.335693 489.828766,450.028992 492.156311,452.031555   C497.515228,458.049957 503.354095,463.311798 507.821075,469.555206   C519.537415,485.931000 522.958862,504.544403 520.314453,524.268494   C519.399780,531.090515 517.439575,537.772339 515.956970,544.518188   C514.202087,547.112122 512.447266,549.705994 510.289703,552.895081   C516.444214,557.349976 522.457336,561.690735 528.457947,566.048523   C540.175049,574.557861 551.951416,582.987488 563.578979,591.617615   C574.667358,599.847595 576.289307,612.080261 567.890930,622.399719   C560.226501,631.817322 545.561279,632.930969 536.135132,624.736206   C521.553467,612.059326 506.880493,599.481750 492.543427,586.532959   C488.277802,582.680359 485.099884,581.711426 479.711853,584.876465   C466.330109,592.737305 451.408936,595.218933 436.017242,595.219910   C396.197327,595.222595 356.377380,595.262878 316.557465,595.240356   C313.475372,595.238647 310.942535,595.503601 308.695251,598.297485   C307.366211,599.949829 304.458618,601.025940 302.209869,601.118225   C294.726715,601.425049 287.218903,601.251221 279.723572,601.105652   C272.974060,600.974670 269.742249,597.707886 269.458771,590.898071   C269.320251,587.571045 269.362671,584.236450 269.676910,580.550354   C308.018982,580.195435 346.007355,580.195435 383.995697,580.195435   C369.350983,569.328186 358.752319,555.918396 352.473419,539.142029  M503.226471,582.559021   C510.942444,588.793518 518.576538,595.132996 526.400696,601.228638   C532.488403,605.971497 538.812927,610.410522 545.516174,615.431030   C550.483154,614.798706 561.033020,605.780334 561.505859,601.331360   C561.639832,600.070740 560.540222,598.192383 559.432983,597.359253   C541.919250,584.180603 524.312012,571.126343 508.372284,559.268188   C502.563660,564.098999 497.107025,568.637024 491.132324,573.605896   C495.487671,576.658813 499.239166,579.288452 503.226471,582.559021  M397.197662,574.835876   C403.437622,577.206665 409.677612,579.577393 416.672302,582.223022   C448.521545,588.503479 475.671478,580.775085 496.781769,555.236755   C514.355896,533.976318 517.966736,501.291809 501.184479,474.899902   C474.991882,433.709229 420.508850,428.817200 386.213776,455.736023   C345.478363,487.709991 350.915253,551.264954 397.197662,574.835876  z"
   id="path2" />
<path
   fill="#183D52"
   opacity="1.000000"
   stroke="none"
   d=" M485.181580,446.073853   C479.258728,442.905670 473.335907,439.737518 467.259705,435.823883   C467.160889,419.605011 467.130402,404.130432 467.334564,388.658997   C467.381195,385.127289 468.238098,381.606293 468.823700,377.340088   C459.932953,377.340088 450.166443,377.340088 440.202698,377.340088   C441.317200,379.930084 442.961029,382.000977 442.988129,384.092834   C443.186340,399.396240 443.060211,414.703796 443.036407,430.010071   C438.323486,430.011475 433.610535,430.012878 428.527283,429.542969   C428.200287,414.605743 428.170898,400.138794 428.376678,385.675171   C428.403137,383.814850 429.939819,382.014191 430.218201,380.104401   C430.375671,379.024170 429.405670,376.762177 428.924561,376.756927   C419.872711,376.657776 410.818024,376.812225 401.764465,376.953583   C401.561371,376.956726 401.365540,377.425232 400.710663,378.251678   C405.819794,381.334839 404.291595,386.503510 404.383789,391.207001   C404.663818,405.496490 404.808838,419.788666 405.006439,434.079773   C400.414307,436.052490 395.822174,438.025238 390.837769,439.540405   C390.485962,427.354492 390.330719,415.620941 390.644867,403.899933   C390.816559,397.494385 389.324890,392.180176 384.017578,388.107788   C386.256226,386.837219 388.357300,385.981110 390.358643,384.934326   C391.892426,384.132172 394.021362,383.411652 394.613678,382.086334   C395.833374,379.357178 396.202209,376.247772 396.921173,373.294830   C398.023895,372.983704 399.126587,372.672546 400.714417,372.666901   C403.665955,374.444885 406.046021,375.168915 407.998352,372.187592   C413.324371,372.118896 418.650238,372.038391 423.976410,371.984406   C431.029907,371.912872 438.053253,372.597046 445.146606,372.064240   C452.268616,371.529236 459.476105,371.747406 466.622192,372.109070   C469.440308,372.251678 472.193573,373.675110 475.513733,374.677551   C477.363251,374.238800 480.246796,373.058441 483.167938,372.956604   C491.321533,372.672272 499.490814,372.801849 507.653687,372.832275   C513.141846,372.852722 516.109863,377.446381 512.795349,381.897217   C508.897339,387.131561 511.323242,390.258514 514.717346,393.888702   C521.912354,401.584106 529.130371,409.349121 529.928711,420.652649   C530.326843,426.290100 529.777832,432.056580 530.730530,437.579559   C532.620667,448.536346 535.880737,459.275665 537.445190,470.265656   C540.284363,490.209747 539.668091,510.082489 533.891602,529.617310   C531.295532,538.396667 525.952454,543.617493 516.339844,544.552490   C517.439575,537.772339 519.399780,531.090515 520.314453,524.268494   C522.958862,504.544403 519.537415,485.931000 507.821075,469.555206   C503.354095,463.311798 497.515228,458.049957 492.621277,451.966919   C504.141022,451.593079 515.341064,451.593079 526.541077,451.593079   C526.791016,450.980133 527.040955,450.367218 527.290894,449.754272   C525.231628,448.427612 523.197327,446.003204 521.108826,445.955566   C509.140198,445.682587 497.158722,445.973969 485.181580,446.073853  M495.487885,440.810730   C498.934357,440.810730 502.380798,440.810730 506.252167,440.810730   C506.252167,436.845215 506.247070,433.551514 506.253143,430.257782   C506.269348,421.440735 505.948059,412.605835 506.407257,403.811768   C506.851471,395.304077 503.823761,386.392853 510.054199,377.577942   C499.907837,377.577942 490.834839,377.526398 481.766785,377.713806   C481.256042,377.724335 480.274811,379.766388 480.402191,380.747406   C480.675598,382.853485 482.034119,384.876862 482.063660,386.946747   C482.227478,398.423096 482.124115,409.903198 482.116211,421.382019   C482.111877,427.654388 482.115417,433.926788 482.115417,440.805542   C486.607300,440.805542 490.556549,440.805542 495.487885,440.810730  z"
   id="path3" />
<path
   fill="#686F7A"
   opacity="1.000000"
   stroke="none"
   d=" M351.980072,539.039307   C358.752319,555.918396 369.350983,569.328186 383.995697,580.195435   C346.007355,580.195435 308.018982,580.195435 269.581055,580.092163   C265.640137,579.985657 262.144012,580.099731 258.658356,579.956970   C248.566849,579.543640 240.929214,572.671021 240.181183,562.520569   C239.621582,554.927063 240.070755,547.259277 240.070755,538.936523   C277.366333,538.936523 314.426544,538.936523 351.980072,539.039307  z"
   id="path4" />
<path
   fill="#E7721E"
   opacity="1.000000"
   stroke="none"
   d=" M1128.974487,442.047668   C1128.975708,438.919861 1128.975708,436.285065 1128.975708,433.289398   C1135.440430,433.289398 1141.472656,433.289398 1147.801514,433.289398   C1147.801514,462.746674 1147.801514,491.977173 1147.801514,521.600952   C1141.615967,521.600952 1135.580322,521.600952 1129.028687,521.600952   C1129.028687,509.344116 1129.028687,497.257568 1129.028687,484.699402   C1118.979248,484.699402 1109.433960,484.699402 1099.284180,484.699402   C1099.284180,496.910797 1099.284180,509.124512 1099.284180,521.663269   C1092.775146,521.663269 1086.857666,521.663269 1080.543457,521.663269   C1080.543457,492.259827 1080.543457,462.896454 1080.543457,433.226318   C1086.599487,433.226318 1092.507568,433.226318 1099.075806,433.226318   C1099.075806,444.669678 1099.075806,456.059113 1099.075806,467.925598   C1109.250366,467.925598 1118.778442,467.925598 1128.973267,467.925598   C1128.973267,459.422882 1128.973267,450.981781 1128.974487,442.047668  z"
   id="path5" />
<path
   fill="#183F56"
   opacity="1.000000"
   stroke="none"
   d=" M397.001648,372.813049   C396.202209,376.247772 395.833374,379.357178 394.613678,382.086334   C394.021362,383.411652 391.892426,384.132172 390.358643,384.934326   C388.357300,385.981110 386.256226,386.837219 383.638123,387.989441   C379.509460,387.603241 375.943329,386.499542 372.371674,386.481354   C340.398682,386.318481 308.424469,386.411163 276.451141,386.290924   C261.097565,386.233185 253.464325,392.045227 249.559372,406.958862   C247.819397,405.657410 246.417343,404.399323 245.877792,403.915161   C243.273605,404.381409 241.606384,404.679901 239.939163,404.978394   C239.909454,404.803314 239.879730,404.628265 240.260422,404.057678   C240.748627,402.429565 240.826431,401.196960 240.904236,399.964325   C244.137863,386.378784 258.134583,375.539978 272.944366,375.326813   C281.590271,375.202362 290.239746,375.323303 298.887604,375.333008   C300.664795,375.335022 302.442017,375.333282 304.603943,375.333282   C304.603943,369.231689 304.603943,363.789429 304.603943,357.765228   C306.519562,357.633881 308.092377,357.434479 309.665558,357.431824   C337.105530,357.385529 364.545990,357.433716 391.985016,357.257050   C395.924713,357.231689 397.424194,358.382904 397.091156,362.358246   C396.814514,365.659668 397.065063,369.005249 397.001648,372.813049  z"
   id="path6" />
<path
   fill="#183F56"
   opacity="1.000000"
   stroke="none"
   d=" M591.239685,469.062927   C595.014221,458.157166 598.709351,447.638000 602.208435,437.054047   C603.164062,434.163452 604.474792,432.696259 607.794922,432.880005   C612.933472,433.164429 618.099426,432.955017 623.738586,432.955017   C632.217285,462.415375 640.693054,491.865570 649.268250,521.661255   C642.436401,521.661255 636.145813,521.661255 629.360535,521.661255   C627.884827,516.319702 626.396240,510.931580 624.843811,505.312195   C615.342590,505.312195 605.916016,505.312195 596.211060,505.312195   C594.863953,509.839020 593.755676,514.359131 592.097900,518.667725   C591.574768,520.027161 589.642761,521.617981 588.247253,521.727783   C583.456909,522.104980 578.618530,521.872620 572.825989,521.872620   C579.024658,504.068878 585.055603,486.747009 591.239685,469.062927  M605.737122,476.123749   C604.433044,480.698822 603.128967,485.273895 601.739868,490.147339   C608.166626,490.147339 614.175232,490.147339 620.764099,490.147339   C617.665100,478.279358 614.707764,466.953705 611.549683,454.859528   C609.528259,462.223938 607.729126,468.778503 605.737122,476.123749  z"
   id="path7" />
<path
   fill="#E7721E"
   opacity="1.000000"
   stroke="none"
   d=" M1222.162842,458.000000   C1222.163940,448.694946 1222.163940,439.889893 1222.163940,430.700317   C1228.209106,430.700317 1233.776245,430.700317 1240.053223,430.700317   C1240.053223,442.165771 1240.053223,453.551544 1240.053223,465.928894   C1242.333984,464.557343 1243.674683,463.780060 1244.986816,462.957611   C1256.854858,455.519104 1270.441162,459.595184 1275.499878,472.622894   C1279.938477,484.053741 1279.906250,495.918945 1275.515503,507.327026   C1270.894165,519.334961 1260.601440,523.655273 1248.714478,523.599854   C1239.989990,523.559082 1231.273438,521.821472 1222.161621,520.796021   C1222.161621,499.371155 1222.161621,478.935577 1222.162842,458.000000  M1259.983154,486.911407   C1259.502808,484.643219 1259.227295,482.306824 1258.499390,480.121063   C1256.992310,475.595215 1253.110596,473.370209 1248.378174,474.040405   C1243.895386,474.675232 1240.127441,478.658569 1240.083374,483.083374   C1240.005859,490.879761 1240.183960,498.680054 1240.013062,506.473419   C1239.947021,509.485748 1241.281738,510.509460 1243.979858,510.949524   C1252.425659,512.327026 1257.671387,509.023041 1259.141846,500.672821   C1259.882812,496.465302 1259.772949,492.107971 1259.983154,486.911407  z"
   id="path8" />
<path
   fill="#173D55"
   opacity="1.000000"
   stroke="none"
   d=" M665.868652,521.905090   C662.075317,521.904907 658.755432,521.904907 654.937256,521.904907   C654.937256,501.615631 654.937256,481.596558 654.937256,461.154419   C660.148987,461.154419 665.402527,461.154419 670.827576,461.154419   C671.153870,463.089172 671.510132,465.201721 671.981628,467.997131   C677.126099,463.022614 682.615234,459.773254 689.573608,459.630127   C700.622742,459.402893 707.191223,464.110901 707.728577,475.024506   C708.487610,490.441345 707.920898,505.923431 707.920898,521.645874   C702.278809,521.645874 696.688354,521.645874 690.334229,521.645874   C690.334229,516.698425 690.327087,511.756226 690.335938,506.814026   C690.349548,499.155792 690.465698,491.496368 690.366455,483.839691   C690.278748,477.081818 687.948547,474.238831 682.860901,474.215759   C677.801208,474.192810 672.418640,479.113678 672.358032,484.247040   C672.222473,495.732635 672.322205,507.220917 672.298035,518.708008   C672.296021,519.679871 672.084045,520.651306 671.936401,521.905273   C669.978943,521.905273 668.160461,521.905273 665.868652,521.905090  z"
   id="path9" />
<path
   fill="#E7721E"
   opacity="1.000000"
   stroke="none"
   d=" M1193.945312,466.125427   C1193.944946,464.327026 1193.944946,463.014618 1193.944946,461.366272   C1199.760376,461.366272 1205.335571,461.366272 1211.382568,461.366272   C1211.382568,481.251770 1211.382568,501.148651 1211.382568,521.541382   C1206.212646,521.541382 1200.830322,521.541382 1195.177734,521.541382   C1194.872314,519.312927 1194.541382,516.898376 1194.128174,513.883972   C1188.240479,520.934692 1181.247437,524.468872 1172.439087,523.289734   C1164.714600,522.255676 1159.710205,517.871521 1159.059692,510.099365   C1158.201538,499.849182 1158.314453,489.514404 1158.112915,479.213959   C1157.999268,473.408905 1158.092407,467.599823 1158.092407,461.401367   C1164.101929,461.401367 1169.799194,461.401367 1176.096802,461.401367   C1176.096802,471.468842 1176.076172,481.396149 1176.107788,491.323334   C1176.118896,494.814728 1175.784546,498.406982 1176.502319,501.761841   C1176.993774,504.059052 1178.683594,507.363800 1180.459839,507.825562   C1183.113647,508.515564 1187.264038,508.078003 1189.052734,506.342316   C1191.513916,503.954010 1193.484863,499.974976 1193.694214,496.556641   C1194.303711,486.607086 1193.932495,476.597504 1193.945312,466.125427  z"
   id="path10" />
<path
   fill="#183F56"
   opacity="1.000000"
   stroke="none"
   d=" M768.284302,520.285889   C760.828308,525.090088 752.925781,523.193604 748.645691,515.935547   C745.815979,517.855591 743.154785,520.105164 740.128479,521.630249   C731.589050,525.933472 720.292542,522.647400 716.062927,514.898071   C711.060425,505.732758 713.886536,494.984528 723.309509,490.129822   C727.611755,487.913269 732.688416,487.049316 737.513000,486.051544   C740.549377,485.423584 743.769653,485.684814 746.831055,485.550507   C748.809570,477.485565 745.824707,473.021240 737.953796,473.367096   C732.260132,473.617310 726.629333,475.295654 720.447571,476.433350   C719.771973,473.011963 718.958069,468.890167 718.081665,464.451996   C728.255737,460.180206 738.750488,458.374725 749.623596,460.385254   C759.629211,462.235382 764.863892,468.633606 765.101868,478.853455   C765.318726,488.167419 765.048950,497.496277 765.432495,506.800476   C765.537537,509.347687 767.220703,511.829834 768.179688,514.341858   C768.568604,514.228638 768.957581,514.115417 769.346558,514.002197   C769.027100,515.969299 768.707642,517.936401 768.284302,520.285889  M738.610291,495.780487   C737.849976,496.107574 737.024780,496.334686 736.340332,496.778717   C733.092102,498.886200 731.174133,501.991119 732.542786,505.657623   C733.338013,507.787964 735.972351,510.836029 737.576660,510.718048   C740.685547,510.489502 745.008545,509.090820 746.339844,506.757263   C748.082520,503.702850 747.414856,499.273315 747.832397,494.931976   C744.314209,495.173401 741.847168,495.342682 738.610291,495.780487  z"
   id="path11" />
<path
   fill="#183F56"
   opacity="1.000000"
   stroke="none"
   d=" M848.984253,488.143127   C841.998047,506.355988 835.164734,524.213989 828.147888,541.999573   C827.646301,543.270996 825.847839,544.787354 824.572021,544.864807   C819.271790,545.186584 813.940674,545.000000 808.133667,545.000000   C811.408081,537.635254 814.692078,530.610840 817.613403,523.438660   C818.400879,521.505371 818.815491,518.872314 818.165100,516.986877   C812.260254,499.866089 806.077881,482.841034 799.988647,465.783661   C799.493225,464.395782 799.087036,462.975952 798.535828,461.246002   C805.138794,461.246002 811.420593,461.246002 818.163208,461.246002   C822.050171,473.670868 825.997681,486.289154 830.249023,499.878662   C834.364868,486.324463 838.154053,473.845886 841.987549,461.221436   C847.680359,461.221436 853.122864,461.221436 859.341125,461.221436   C855.851440,470.261597 852.471985,479.016083 848.984253,488.143127  z"
   id="path12" />
<path
   fill="#183F56"
   opacity="1.000000"
   stroke="none"
   d=" M968.212402,472.901978   C969.564331,480.510010 970.771057,487.764252 972.055420,495.485443   C959.120667,495.485443 947.721680,495.485443 936.328247,495.485443   C935.374512,505.410248 941.805969,511.625427 952.309448,510.481384   C956.865601,509.985138 961.321289,508.566467 966.309204,507.458679   C966.932800,511.032684 967.628723,515.021240 968.397339,519.426575   C956.637756,524.081604 944.823059,525.235718 932.853088,521.010559   C926.414978,518.737976 921.772583,514.176514 919.710815,507.553284   C915.639893,494.475861 915.474670,481.742828 923.514709,469.805023   C932.876648,455.904480 961.827881,455.528961 968.212402,472.901978  M953.314270,483.535492   C953.128235,475.034119 950.925293,471.485382 945.678101,471.234558   C940.491821,470.986633 936.946899,475.322144 936.087769,482.990509   C936.022705,483.571136 936.079224,484.165375 936.079224,485.355255   C942.048340,485.046600 947.590698,484.760010 953.314270,483.535492  z"
   id="path13" />
<path
   fill="#183F56"
   opacity="1.000000"
   stroke="none"
   d=" M883.000183,521.888428   C875.866882,521.887329 869.233459,521.887329 862.279663,521.887329   C861.708862,515.319031 861.442566,509.630554 866.282043,504.136078   C874.274353,495.062073 881.353455,485.183777 889.238831,475.105804   C880.659851,475.105804 872.626526,475.105804 864.202271,475.105804   C864.202271,470.321503 864.202271,465.949310 864.202271,461.260712   C880.066467,461.260712 895.981873,461.260712 912.087463,461.260712   C913.047729,467.692657 912.463501,473.328247 907.799744,478.747406   C899.920471,487.902863 892.838379,497.744354 884.502563,508.480591   C894.728455,508.480591 903.541199,508.480591 912.256714,508.480591   C912.256714,513.354675 912.256714,517.443726 912.256714,521.889587   C902.431946,521.889587 892.966064,521.889587 883.000183,521.888428  z"
   id="path14" />
<path
   fill="#183F56"
   opacity="1.000000"
   stroke="none"
   d=" M1020.822998,516.252563   C1021.264038,513.064514 1021.650146,510.279724 1022.060974,507.316772   C1026.408569,508.457275 1030.499268,509.557465 1034.607422,510.588135   C1035.567993,510.829132 1036.594727,510.973267 1037.579102,510.923950   C1041.498169,510.727539 1046.411987,511.484985 1047.546021,506.468750   C1048.612427,501.751007 1044.288086,500.148987 1040.767090,498.535706   C1037.144287,496.875824 1033.462769,495.327454 1029.926147,493.499573   C1023.297668,490.073639 1020.421875,484.408173 1020.825806,477.076355   C1021.226807,469.797485 1025.276978,464.953308 1031.776978,462.299408   C1042.531616,457.908234 1053.252930,459.220886 1064.526855,463.048981   C1063.849121,467.268127 1063.210571,471.242859 1062.617920,474.932526   C1057.243042,473.930389 1052.409302,472.469727 1047.544556,472.357910   C1045.109375,472.301941 1042.617554,474.706177 1040.151367,475.997620   C1041.811768,478.202637 1043.047852,481.067749 1045.225830,482.467621   C1049.104248,484.960510 1053.627197,486.424438 1057.745605,488.576721   C1064.433228,492.071594 1066.869019,497.915436 1066.364014,505.208466   C1065.837769,512.803040 1061.875000,518.177429 1054.961914,520.825500   C1044.280273,524.917114 1033.369019,524.243530 1022.658325,520.683350   C1021.689148,520.361206 1021.382446,518.045776 1020.822998,516.252563  z"
   id="path15" />
<path
   fill="#173D55"
   opacity="1.000000"
   stroke="none"
   d=" M793.246338,475.023834   C793.243286,490.770782 793.243286,506.022064 793.243286,521.569397   C787.350220,521.569397 781.933533,521.569397 776.074707,521.569397   C776.074707,490.885345 776.074707,460.232697 776.074707,429.257507   C781.485107,429.257507 787.047241,429.257507 793.249390,429.257507   C793.249390,444.423065 793.249390,459.475586 793.246338,475.023834  z"
   id="path16" />
<path
   fill="#173D55"
   opacity="1.000000"
   stroke="none"
   d=" M1011.311951,459.375153   C1013.144226,459.498077 1014.580750,459.694641 1016.242065,459.921997   C1016.242065,465.975464 1016.242065,471.721405 1016.242065,477.224030   C1013.534485,477.224030 1011.063293,477.102051 1008.607666,477.246094   C999.882202,477.757843 996.106628,481.703430 996.089050,490.256653   C996.067932,500.558868 996.084045,510.861115 996.084045,521.560669   C990.129272,521.560669 984.420166,521.560669 978.397827,521.560669   C978.397827,501.601166 978.397827,481.711914 978.397827,461.366638   C983.813721,461.366638 989.196899,461.366638 994.810120,461.366638   C995.134705,463.459534 995.495605,465.786255 995.681274,466.983307   C1000.862671,464.420807 1005.889465,461.934814 1011.311951,459.375153  z"
   id="path17" />
<path
   fill="#183D52"
   opacity="1.000000"
   stroke="none"
   d=" M239.758575,405.348022   C241.606384,404.679901 243.273605,404.381409 245.877792,403.915161   C246.417343,404.399323 247.819397,405.657410 249.634689,407.422058   C250.046936,438.749939 250.134796,469.571777 249.965179,500.392181   C249.933716,506.110046 250.871002,511.275665 253.942963,516.042542   C249.911972,519.439087 248.027115,525.543884 241.028152,523.469727   C241.028152,526.839478 241.028152,529.633057 241.028137,532.426636   C240.437805,531.455933 239.331726,530.485474 239.331390,529.514587   C239.317429,488.411774 239.401947,447.308960 239.478760,406.206146   C239.479065,406.043243 239.543518,405.880493 239.758575,405.348022  z"
   id="path18" />
<path
   fill="#183F56"
   opacity="1.000000"
   stroke="none"
   d=" M241.411224,532.566956   C241.028152,529.633057 241.028152,526.839478 241.028152,523.469727   C248.027115,525.543884 249.911972,519.439087 254.248688,516.173767   C259.306061,517.723694 263.691376,520.486023 268.160278,520.628601   C286.426178,521.211304 304.717621,520.993835 322.998901,521.460999   C321.998108,525.438171 320.998047,529.025330 319.998016,532.612549   C293.930115,532.644165 267.862213,532.675720 241.411224,532.566956  z"
   id="path19" />
<path
   fill="#404040"
   opacity="1.000000"
   stroke="none"
   d=" M651.408936,562.112000   C654.030029,562.079895 656.343811,561.568726 658.325745,562.163330   C661.621887,563.152283 666.011841,564.054260 667.492981,566.484802   C668.844360,568.702454 666.946289,572.900330 666.380249,576.939941   C669.031189,578.393921 670.228394,581.813904 669.102051,585.902893   C667.951111,590.080688 664.312805,591.317383 660.599426,591.725342   C657.163269,592.102905 653.652954,591.805786 649.433044,591.805786   C649.433044,582.065186 649.415833,572.645386 649.497253,563.226379   C649.500427,562.856750 650.445923,562.495178 651.408936,562.112000  M663.471619,586.160950   C663.570618,584.195496 664.422424,580.968994 663.630432,580.496155   C661.038147,578.948730 657.847656,578.403442 654.395996,577.318481   C654.395996,581.673828 654.395996,584.727112 654.395996,588.555725   C657.543945,587.874695 660.222107,587.295288 663.471619,586.160950  M654.154663,571.358582   C654.136230,576.244446 657.927856,574.515442 659.788208,573.901367   C661.433960,573.358093 663.804993,570.586121 663.509644,569.366150   C662.328308,564.486023 658.134277,565.787170 654.147522,565.901855   C654.147522,567.533875 654.147522,568.982300 654.154663,571.358582  z"
   id="path20" />
<path
   fill="#404040"
   opacity="1.000000"
   stroke="none"
   d=" M785.488220,570.114990   C789.450806,571.164001 791.052979,573.614319 791.080505,577.177307   C791.116272,581.815186 791.089172,586.453552 791.089172,591.187561   C787.525818,592.601135 786.017578,591.615112 786.257019,587.847839   C786.425537,585.198242 786.342468,582.530945 786.327209,579.871826   C786.311523,577.142517 786.346497,574.228760 782.583435,574.017395   C778.972595,573.814514 776.874573,575.867126 776.641907,579.325928   C776.376770,583.267761 776.580566,587.241211 776.580566,591.497498   C774.756653,591.497498 773.521912,591.497498 771.954285,591.497498   C771.954285,581.140076 771.954285,570.893494 771.954285,560.180725   C773.185791,560.114502 774.516846,560.042908 776.289307,559.947571   C776.289307,564.156616 776.289307,567.931519 776.289307,571.579712   C779.483948,571.019226 782.282776,570.528198 785.488220,570.114990  z"
   id="path21" />
<path
   fill="#183D52"
   opacity="1.000000"
   stroke="none"
   d=" M320.458008,532.707886   C320.998047,529.025330 321.998108,525.438171 323.460968,521.376221   C331.834930,520.868713 339.746063,520.835876 347.657227,520.803101   C348.444458,524.455750 349.231689,528.108398 350.025330,532.180176   C340.327148,532.667236 330.622589,532.735229 320.458008,532.707886  z"
   id="path22" />
<path
   fill="#404040"
   opacity="1.000000"
   stroke="none"
   d=" M1032.903687,579.668579   C1034.869751,574.317688 1036.620239,569.296692 1038.681641,564.406738   C1039.122437,563.360901 1040.719971,562.137817 1041.731934,562.182739   C1042.763672,562.228577 1044.250610,563.548279 1044.643433,564.634033   C1047.792480,573.337708 1050.729614,582.118042 1053.782593,591.023804   C1050.759521,592.393616 1048.767700,591.809082 1047.965942,588.351562   C1047.297729,585.470581 1046.390381,583.207581 1042.454102,583.597473   C1038.708740,583.968445 1034.717285,582.939453 1033.955933,588.467102   C1033.584473,591.164673 1031.975098,592.554810 1028.561523,591.061035   C1029.985352,587.359924 1031.392212,583.702576 1032.903687,579.668579  M1042.853516,572.812561   C1042.389893,571.425964 1041.926270,570.039368 1041.166870,567.768188   C1039.606079,572.398010 1038.377930,576.040894 1037.067749,579.927002   C1039.898926,579.927002 1042.296875,579.927002 1045.106445,579.927002   C1044.348999,577.575806 1043.701782,575.566711 1042.853516,572.812561  z"
   id="path23" />
<path
   fill="#404040"
   opacity="1.000000"
   stroke="none"
   d=" M812.364258,584.893738   C812.391235,582.760010 812.818420,580.964478 812.336060,579.460693   C811.711487,577.513428 810.361511,575.798950 809.323914,573.984131   C807.189148,575.456543 804.002991,576.496643 803.176575,578.506836   C802.055054,581.234924 802.548645,584.714966 802.701416,587.855347   C802.868835,591.296143 801.710266,592.543152 798.118408,591.228455   C798.118408,584.509583 798.118408,577.754517 798.118408,571.671509   C802.191895,571.060364 805.975891,570.242004 809.797607,569.986389   C814.038574,569.702759 816.978394,571.655762 817.137146,576.244019   C817.309265,581.218567 817.176147,586.203613 817.176147,591.141785   C812.337891,592.062683 812.337891,592.062683 812.364258,584.893738  z"
   id="path24" />
<path
   fill="#404040"
   opacity="1.000000"
   stroke="none"
   d=" M672.854126,597.812073   C680.358276,595.734619 681.665161,593.233154 678.959229,586.844238   C676.772278,581.680725 674.669800,576.481506 673.134888,570.900513   C681.185303,572.132874 679.138611,580.827942 683.682495,585.471985   C685.130188,581.435608 686.698547,577.731812 687.763184,573.888367   C688.655945,570.665527 690.393188,570.109680 693.437744,571.180420   C690.485474,578.479919 687.751648,585.760254 684.590698,592.850159   C682.826538,596.807129 680.453308,600.608521 675.445618,601.151062   C673.205933,601.393799 671.180969,601.138672 672.854126,597.812073  z"
   id="path25" />
<path
   fill="#404040"
   opacity="1.000000"
   stroke="none"
   d=" M1063.087646,586.600159   C1063.087769,588.351746 1063.087769,589.664917 1063.087769,591.125366   C1060.098999,592.116272 1058.108276,592.324158 1058.227295,588.284790   C1058.392944,582.661743 1058.268921,577.030212 1058.268921,570.388916   C1060.326416,570.926941 1061.989380,571.361755 1064.003296,571.888367   C1065.989624,571.410889 1068.746582,570.237061 1071.514526,570.210571   C1075.072021,570.176453 1077.410156,572.361877 1077.482910,576.173706   C1077.577637,581.129700 1077.506104,586.088806 1077.506104,591.042114   C1073.081421,592.170105 1073.058105,592.170532 1072.982544,587.965576   C1072.926025,584.814148 1073.274048,581.608765 1072.787476,578.530884   C1072.529175,576.897583 1070.840820,574.213196 1069.861938,574.241089   C1067.918701,574.296509 1064.956787,575.460510 1064.333374,576.962341   C1063.186401,579.725037 1063.425903,583.063354 1063.087646,586.600159  z"
   id="path26" />
<path
   fill="#404040"
   opacity="1.000000"
   stroke="none"
   d=" M891.498291,571.104736   C895.574585,571.663818 899.198364,570.798584 902.958008,570.119690   C907.173096,569.358521 910.134338,571.685791 910.524963,576.099487   C910.905457,580.399353 911.026062,584.764465 910.695923,589.057434   C910.605103,590.238586 908.492126,591.264160 907.307007,592.361084   C906.829529,592.017822 906.351990,591.674561 905.874512,591.331299   C905.874512,587.557922 905.920593,583.783752 905.859375,580.011353   C905.813354,577.177185 906.059326,573.847351 901.888550,573.921631   C898.147949,573.988281 896.159424,576.382812 896.002014,580.039429   C895.845337,583.679016 895.967651,587.330566 895.967651,591.367920   C894.358093,591.367920 893.002075,591.367920 891.225952,591.367920   C891.225952,584.604370 891.225952,578.006226 891.498291,571.104736  z"
   id="path27" />
<path
   fill="#404040"
   opacity="1.000000"
   stroke="none"
   d=" M1128.479004,583.224731   C1129.643188,579.875366 1130.396606,576.765381 1131.747925,573.941528   C1132.509888,572.349365 1134.256714,571.228455 1135.559814,569.895203   C1136.171143,570.347839 1136.782471,570.800415 1137.393799,571.253052   C1133.755493,579.685425 1130.462402,588.296265 1126.255981,596.434998   C1125.085083,598.700378 1121.263062,599.679138 1118.525635,600.968567   C1118.070557,601.182861 1116.937256,599.957397 1116.117432,599.397217   C1116.696045,598.778748 1117.158569,597.899414 1117.871338,597.582214   C1124.923706,594.443420 1125.570312,592.986877 1122.749756,585.995605   C1121.756592,583.533997 1120.730347,581.085449 1119.701782,578.638367   C1118.685913,576.221558 1117.648438,573.813965 1116.540283,571.214722   C1119.970947,569.893799 1121.906616,570.661682 1122.892700,574.215393   C1123.776611,577.401184 1125.119873,580.464966 1126.395630,583.526245   C1126.497314,583.770081 1127.652710,583.574951 1128.479004,583.224731  z"
   id="path28" />
<path
   fill="#404040"
   opacity="1.000000"
   stroke="none"
   d=" M1082.876709,586.045166   C1084.138306,578.347229 1090.772095,580.007385 1095.344116,578.340271   C1096.380371,573.231934 1093.490845,573.342896 1085.448730,574.485535   C1085.378418,573.702026 1085.171875,572.272705 1085.259644,572.254395   C1088.693726,571.537476 1092.248047,570.218079 1095.573730,570.642944   C1097.317261,570.865784 1099.315186,573.967224 1100.019287,576.149170   C1100.797241,578.559937 1100.057739,581.421143 1100.293945,584.057983   C1100.500488,586.363464 1101.143433,588.629822 1101.732910,591.620300   C1102.053589,591.121155 1101.833984,591.647949 1101.711914,591.626282   C1097.356323,590.852112 1093.089355,591.282043 1088.709595,591.812439   C1085.553101,592.194702 1083.052734,590.118958 1082.876709,586.045166  M1094.511963,587.251282   C1095.008179,585.573853 1095.504395,583.896362 1096.000610,582.218933   C1095.435547,581.773987 1094.870361,581.329041 1094.305298,580.884094   C1092.138672,582.551941 1088.235840,584.155579 1088.171387,585.901245   C1088.042114,589.398865 1091.451172,588.287170 1094.511963,587.251282  z"
   id="path29" />
<path
   fill="#404040"
   opacity="1.000000"
   stroke="none"
   d=" M996.770630,574.325317   C1000.440979,583.263855 997.821045,590.379639 990.646301,591.825806   C985.333801,592.896545 980.492065,590.631531 978.643921,586.210815   C976.448730,580.960022 977.892395,574.349060 981.804565,571.737183   C986.388306,568.676880 992.253052,569.575867 996.770630,574.325317  M992.051819,575.249756   C987.960388,572.805115 984.909119,573.233765 983.245850,576.486877   C981.225098,580.439270 982.670410,586.703125 986.042480,587.948120   C989.111877,589.081360 992.122009,588.423645 992.822510,585.037781   C993.422363,582.138672 992.687073,578.963379 992.051819,575.249756  z"
   id="path30" />
<path
   fill="#404040"
   opacity="1.000000"
   stroke="none"
   d=" M884.170044,578.559021   C884.427551,582.928955 884.684998,586.860901 884.942505,590.792908   C885.363647,590.776917 885.784851,590.760986 886.206055,590.744995   C886.050842,591.026245 885.871399,591.563660 885.743896,591.551575   C881.215271,591.123535 876.768738,590.845764 872.165955,591.682617   C870.700195,591.949036 867.450500,589.219543 867.186951,587.523743   C866.870911,585.489685 868.291382,582.250366 870.014771,581.058960   C872.454163,579.372620 875.858582,579.082092 878.879761,578.186279   C878.950500,573.318176 878.368652,573.064148 869.445190,574.165955   C869.451721,571.232422 871.296387,570.074768 876.127258,569.972717   C881.717773,569.854614 883.830322,571.994934 884.170044,578.559021  M878.381104,587.195129   C878.809631,585.580261 879.238220,583.965393 879.888977,581.513062   C877.026489,582.154297 874.766357,582.097656 873.394531,583.173584   C872.535767,583.846985 873.014221,586.225342 872.892639,587.838684   C874.505920,587.796692 876.119202,587.754700 878.381104,587.195129  z"
   id="path31" />
<path
   fill="#404040"
   opacity="1.000000"
   stroke="none"
   d=" M958.916016,581.911316   C958.918335,575.168030 958.918335,568.907532 958.918335,562.048767   C964.086304,562.048767 968.696655,561.962097 973.297913,562.128723   C974.125732,562.158691 974.915771,563.232117 975.723267,563.823853   C974.906616,564.404358 974.120911,565.425415 973.267822,565.485229   C970.313965,565.692383 967.336670,565.565125 964.059204,565.565125   C964.059204,568.741943 964.059204,571.607483 964.059204,575.057861   C966.602112,575.057861 968.898682,574.894531 971.148987,575.145630   C971.946655,575.234680 972.631775,576.333008 973.368347,576.970520   C972.685730,577.511169 972.038635,578.453735 971.313843,578.517944   C969.030823,578.720093 966.718567,578.592407 964.416870,578.592407   C963.796509,583.160583 963.282654,587.285156 962.539673,591.367981   C962.503967,591.564453 960.447754,591.393250 958.913757,591.393250   C958.913757,588.286072 958.913757,585.340088 958.916016,581.911316  z"
   id="path32" />
<path
   fill="#404040"
   opacity="1.000000"
   stroke="none"
   d=" M731.773315,571.527832   C741.212952,568.237183 745.868530,571.536072 745.734314,581.538940   C741.557007,581.538940 737.349121,581.538940 733.156433,581.538940   C733.095642,588.031555 734.375916,588.674622 745.677429,589.088318   C744.448303,589.946838 743.332764,591.213562 741.970215,591.592468   C736.363403,593.152222 731.101501,591.279785 728.885254,587.224304   C726.279785,582.456665 727.365784,575.915955 731.773315,571.527832  M734.537170,574.228271   C733.884155,575.387390 733.231140,576.546509 732.406250,578.010620   C735.848022,578.010620 738.482361,578.010620 741.279968,578.010620   C739.575806,573.410339 739.575806,573.410339 734.537170,574.228271  z"
   id="path33" />
<path
   fill="#404040"
   opacity="1.000000"
   stroke="none"
   d=" M1161.065918,585.730957   C1159.801147,580.208618 1159.786743,574.898743 1164.679688,572.010925   C1167.261963,570.486755 1171.557251,570.292664 1174.472656,571.283142   C1178.600220,572.685303 1178.721924,577.055603 1178.517944,581.611694   C1174.163940,581.611694 1169.945190,581.611694 1165.676636,581.611694   C1166.340210,588.157166 1168.111206,588.990845 1178.456421,588.754089   C1177.492432,589.631104 1176.671631,590.933594 1175.540527,591.314087   C1169.437378,593.367004 1164.295288,591.413330 1161.065918,585.730957  M1172.541626,574.096375   C1167.609253,572.727173 1166.468262,573.456970 1166.099976,578.233154   C1168.733276,578.233154 1171.366455,578.233154 1174.505859,578.233154   C1173.887207,576.665894 1173.489380,575.658081 1172.541626,574.096375  z"
   id="path34" />
<path
   fill="#404040"
   opacity="1.000000"
   stroke="none"
   d=" M1156.740112,572.589966   C1153.219604,577.748718 1149.777710,582.532104 1146.350952,587.294434   C1149.753174,589.947571 1155.059204,585.816772 1157.746582,591.426270   C1151.291748,591.426270 1145.604614,591.426270 1138.238770,591.426270   C1142.640747,585.195679 1146.348267,579.947937 1150.188599,574.512085   C1147.088013,572.219299 1142.296143,575.911560 1139.204468,570.671814   C1145.494751,570.671814 1150.700439,570.645203 1155.904053,570.737854   C1156.217651,570.743408 1156.514160,571.700317 1156.740112,572.589966  z"
   id="path35" />
<path
   fill="#404040"
   opacity="1.000000"
   stroke="none"
   d=" M714.975708,573.057861   C714.976318,570.430908 714.976318,568.296631 714.976318,565.737366   C712.498230,565.607605 710.371765,565.623047 708.291565,565.320190   C707.538086,565.210449 706.895447,564.339111 706.202271,563.815308   C706.866821,563.272461 707.521790,562.272461 708.197449,562.258301   C714.348267,562.129333 720.503174,562.135132 726.655090,562.227417   C727.218140,562.235840 727.768127,563.118896 728.324158,563.595764   C727.740662,564.211182 727.226257,565.255066 726.560791,565.362427   C724.479065,565.698120 722.340332,565.680237 719.882019,565.818481   C719.882019,573.384521 719.767517,580.669495 719.932434,587.947998   C720.010010,591.369202 718.906860,592.600464 714.975159,591.168884   C714.975159,585.416016 714.975159,579.483276 714.975708,573.057861  z"
   id="path36" />
<path
   fill="#404040"
   opacity="1.000000"
   stroke="none"
   d=" M924.230652,583.086914   C923.375488,582.757202 922.917297,582.562622 922.456177,582.375305   C919.482239,581.167114 916.190796,579.949585 916.542175,576.032654   C916.692993,574.351562 918.161499,571.663208 919.413818,571.422424   C922.841431,570.763489 926.472778,571.138733 930.019836,571.236633   C930.140503,571.239929 930.221985,572.661987 930.369019,573.784119   C928.001282,573.637878 925.899719,573.243347 923.877930,573.493591   C922.850952,573.620728 921.967590,574.909058 921.019287,575.672424   C921.726807,576.480469 922.296143,577.519958 923.173401,578.043823   C924.583252,578.885742 926.625305,579.002686 927.626526,580.119568   C929.254211,581.935181 931.454956,584.476135 931.188904,586.403931   C930.919495,588.356628 928.226379,590.696960 926.088379,591.473816   C923.787537,592.310059 920.864868,591.740417 918.283325,591.337097   C917.354431,591.191895 916.628540,589.747314 914.759399,587.802734   C918.684570,588.038269 920.935852,588.369751 923.156677,588.226929   C924.330811,588.151367 925.451843,587.250000 926.596863,586.721497   C925.940002,585.556152 925.283142,584.390808 924.230652,583.086914  z"
   id="path37" />
<path
   fill="#404040"
   opacity="1.000000"
   stroke="none"
   d=" M1199.108887,575.229614   C1201.220703,569.578918 1205.610352,569.750244 1210.015259,570.424255   C1211.218384,570.608337 1212.265137,571.814453 1213.383789,572.551575   C1213.140503,572.912781 1212.897217,573.274048 1212.653931,573.635254   C1210.529419,573.635254 1208.378174,573.440857 1206.292725,573.726379   C1205.399170,573.848694 1204.331055,574.831970 1203.950562,575.692993   C1203.750122,576.146118 1204.693237,577.453613 1205.414062,577.890625   C1206.820801,578.743530 1208.856079,578.874695 1209.867920,579.994324   C1211.585938,581.895203 1213.849854,584.389771 1213.738159,586.522522   C1213.644287,588.317627 1210.764648,590.628479 1208.629028,591.469177   C1206.493286,592.310120 1203.713013,591.850830 1201.293335,591.467957   C1200.322266,591.314331 1199.559448,589.844116 1198.701782,588.973145   C1198.982788,588.608948 1199.263794,588.244690 1199.544922,587.880493   C1201.477417,588.124146 1203.450195,588.715759 1205.329346,588.498413   C1206.766113,588.332153 1208.084595,587.142639 1209.455566,586.408203   C1208.477295,585.283936 1207.713867,583.666626 1206.480103,583.128906   C1202.923462,581.578918 1199.081543,580.560242 1199.108887,575.229614  z"
   id="path38" />
<path
   fill="#404040"
   opacity="1.000000"
   stroke="none"
   d=" M839.582520,582.697510   C841.358521,589.206970 846.017883,588.417175 851.670654,587.570740   C850.796021,589.263123 850.524170,590.805908 849.669922,591.264954   C846.115967,593.174561 839.275208,591.530701 836.815063,588.450256   C833.974243,584.893188 833.915466,577.556702 836.698303,573.860779   C839.104492,570.664978 845.974121,568.767456 849.427429,570.619446   C850.268372,571.070435 850.514587,572.630188 851.234375,574.084534   C841.302063,573.377686 839.820129,574.507935 839.582520,582.697510  z"
   id="path39" />
<path
   fill="#404040"
   opacity="1.000000"
   stroke="none"
   d=" M1111.457764,591.482422   C1108.104126,592.355103 1107.233887,590.827881 1107.421631,588.144836   C1107.479492,587.318665 1107.385498,586.482849 1107.385132,585.651489   C1107.381470,577.338379 1107.382935,569.025208 1107.382935,560.245300   C1108.766479,560.092224 1110.142090,559.940002 1111.804810,559.756042   C1111.804810,570.490234 1111.804810,580.885864 1111.457764,591.482422  z"
   id="path40" />
<path
   fill="#404040"
   opacity="1.000000"
   stroke="none"
   d=" M755.087158,578.559692   C754.764832,587.127930 757.053772,589.004883 766.735840,588.516174   C765.895325,589.518738 765.247559,591.031128 764.180481,591.434509   C759.827820,593.079956 754.409058,591.519348 751.963806,588.249878   C749.180115,584.527588 749.258484,578.242798 752.139404,574.174866   C754.558228,570.759399 760.023926,568.940247 764.171204,570.496399   C765.212097,570.887085 765.838867,572.381104 767.574463,574.477356   C761.666931,573.807739 757.057312,572.444153 755.087158,578.559692  z"
   id="path41" />
<path
   fill="#8D929C"
   opacity="1.000000"
   stroke="none"
   d=" M1245.044556,579.003418   C1240.947510,578.308533 1236.640747,580.663330 1232.489014,576.299072   C1249.077759,576.299072 1264.315430,576.299072 1279.552979,576.299072   C1279.576416,576.781921 1279.599854,577.264709 1279.623291,577.747559   C1276.065674,578.107239 1272.515137,578.596985 1268.948486,578.791992   C1264.972046,579.009338 1260.981201,578.986572 1256.996216,579.017090   C1253.176514,579.046265 1249.356445,579.009644 1245.044556,579.003418  z"
   id="path42" />
<path
   fill="#404040"
   opacity="1.000000"
   stroke="none"
   d=" M1014.626953,570.106445   C1015.360779,571.335449 1015.691101,572.484680 1016.112122,573.949158   C1010.129089,574.043884 1008.491638,577.367737 1008.589966,582.152771   C1008.630737,584.135986 1008.484680,586.127991 1008.614746,588.103394   C1008.850281,591.679382 1007.337585,592.553711 1003.997925,591.188538   C1003.997925,584.466858 1003.997925,577.738342 1003.997925,571.355774   C1007.562927,570.892395 1010.893188,570.459473 1014.626953,570.106445  z"
   id="path43" />
<path
   fill="#8D929C"
   opacity="1.000000"
   stroke="none"
   d=" M587.306152,576.519165   C600.258911,576.089905 612.865906,575.683716 625.476196,575.504761   C626.945312,575.483887 628.432190,576.719971 629.910828,577.373352   C628.534424,577.918518 627.162170,578.925049 625.781067,578.937317   C612.356262,579.056335 598.929993,579.008911 585.504211,579.008911   C585.472107,578.458435 585.440002,577.907959 585.407898,577.357483   C585.925720,577.108337 586.443604,576.859253 587.306152,576.519165  z"
   id="path44" />
<path
   fill="#404040"
   opacity="1.000000"
   stroke="none"
   d=" M1187.799316,591.537720   C1186.338013,590.640991 1184.419189,589.662231 1184.362183,588.585083   C1184.057983,582.826050 1184.218750,577.042480 1184.218750,571.366821   C1188.306030,571.045166 1191.975464,570.756348 1197.151367,570.348999   C1195.890503,572.010681 1195.234375,573.799561 1194.273438,573.981689   C1190.083862,574.776123 1189.090332,577.540527 1188.923706,581.185730   C1188.767822,584.597839 1188.448486,588.002441 1187.799316,591.537720  z"
   id="path45" />
<path
   fill="#404040"
   opacity="1.000000"
   stroke="none"
   d=" M829.018433,578.116821   C829.017883,582.732544 829.017883,586.870605 829.017883,591.086243   C825.890015,592.230713 824.091370,592.013794 824.195618,588.165405   C824.347778,582.545288 824.234741,576.917969 824.234741,571.050415   C825.893921,571.050415 827.311951,571.050415 829.019043,571.050415   C829.019043,573.374695 829.019043,575.506958 829.018433,578.116821  z"
   id="path46" />
<path
   fill="#272E37"
   opacity="1.000000"
   stroke="none"
   d=" M856.590088,581.974976   C856.592163,578.194275 856.592163,574.891357 856.592163,571.151245   C857.943604,571.045227 859.313416,570.937683 860.911621,570.812256   C860.911621,577.737244 860.911621,584.293396 860.911621,591.079224   C857.960754,592.058838 856.256470,591.552551 856.546143,587.906677   C856.689758,586.098999 856.581970,584.271301 856.590088,581.974976  z"
   id="path47" />
<path
   fill="#404040"
   opacity="1.000000"
   stroke="none"
   d=" M941.371338,587.668396   C941.611267,590.159546 941.405334,592.406128 938.545410,591.530518   C937.349915,591.164490 936.666748,589.124695 935.750671,587.845886   C936.085083,587.476807 936.419495,587.107788 936.753906,586.738708   C938.265442,586.932434 939.776978,587.126221 941.371338,587.668396  z"
   id="path48" />
<path
   fill="#183F56"
   opacity="1.000000"
   stroke="none"
   d=" M407.566742,372.097961   C406.046021,375.168915 403.665955,374.444885 401.099487,372.620239   C403.044678,372.181458 405.089905,372.094910 407.566742,372.097961  z"
   id="path49" />
<path
   fill="#183D52"
   opacity="1.000000"
   stroke="none"
   d=" M240.680771,400.236664   C240.826431,401.196960 240.748627,402.429565 240.384689,403.822083   C240.218140,402.824341 240.337723,401.666656 240.680771,400.236664  z"
   id="path50" />
<path
   fill="#F6F8F8"
   opacity="1.000000"
   stroke="none"
   d=" M347.741211,520.474670   C339.746063,520.835876 331.834930,520.868713 323.461700,520.986328   C304.717621,520.993835 286.426178,521.211304 268.160278,520.628601   C263.691376,520.486023 259.306061,517.723694 254.576584,516.034668   C250.871002,511.275665 249.933716,506.110046 249.965179,500.392181   C250.134796,469.571777 250.046936,438.749939 249.972595,407.465454   C253.464325,392.045227 261.097565,386.233185 276.451141,386.290924   C308.424469,386.411163 340.398682,386.318481 372.371674,386.481354   C375.943329,386.499542 379.509460,387.603241 383.457642,388.321869   C389.324890,392.180176 390.816559,397.494385 390.644867,403.899933   C390.330719,415.620941 390.485962,427.354492 390.491608,439.550232   C386.340759,443.082397 382.143768,446.147186 377.705627,448.859741   C377.473785,434.357117 377.486023,420.206726 377.490814,406.056335   C377.492737,400.412415 376.051117,399.036438 370.385803,399.039337   C337.256561,399.056213 304.127350,399.060516 270.998108,399.050873   C264.857910,399.049072 263.561615,400.238647 263.559174,406.191589   C263.551910,423.838226 263.544037,441.484894 263.566681,459.131500   C263.574005,464.835968 265.056305,466.513519 270.450775,466.511597   C301.077271,466.500610 331.703735,466.421356 362.330231,466.365356   C359.540283,471.563965 356.750366,476.762573 353.281616,482.112915   C344.647888,481.872467 343.712463,483.145111 345.928772,491.931549   C347.273621,491.931549 348.730316,491.931549 350.186981,491.931549   C350.730713,496.771942 348.469238,498.245239 343.830627,497.843811   C339.416992,497.461823 334.944366,497.761536 330.072876,497.761536   C330.072876,500.359283 330.072876,502.562164 330.072876,505.391571   C334.878937,505.391571 339.771179,505.391571 345.343231,505.649231   C347.092834,514.383728 338.927795,507.417572 337.135681,511.790253   C336.618683,518.005859 336.618713,518.000793 343.450684,518.029968   C344.941101,518.036377 346.431335,518.093567 347.921631,518.127441   C347.889496,518.800354 347.857330,519.473328 347.741211,520.474670  M282.910645,495.399567   C282.910645,491.286835 282.910645,487.174072 282.910645,482.731079   C276.954956,482.731079 271.561493,482.731079 266.042725,482.731079   C266.042725,489.595428 266.042725,496.182648 266.042725,503.130737   C271.732361,503.130737 277.125427,503.130737 282.917389,503.130737   C282.917389,500.634338 282.917389,498.495361 282.910645,495.399567  M309.493469,483.165222   C304.037933,482.643188 298.582397,482.121124 292.696960,481.557953   C292.696960,488.595673 292.580750,494.412109 292.804382,500.215424   C292.844513,501.257263 294.237183,503.069611 295.090118,503.121033   C299.822693,503.406464 304.581451,503.257874 309.790009,503.257874   C309.790009,496.288727 309.790009,490.159180 309.493469,483.165222  M323.645386,482.059723   C321.891113,482.139801 320.136810,482.219879 318.021454,482.316437   C318.021454,484.792480 317.734161,486.812927 318.127808,488.690552   C318.368866,489.840363 319.617767,491.625977 320.476990,491.662933   C326.504913,491.922119 332.549225,491.800262 338.481079,491.800262   C339.676697,482.100403 339.639587,482.054779 331.047150,482.050690   C328.898956,482.049652 326.750763,482.055145 323.645386,482.059723  M318.184143,503.672852   C318.504822,506.701141 318.355438,509.891357 319.321777,512.697266   C319.905151,514.391052 322.221558,515.487915 323.759247,516.853027   C324.789154,515.471130 326.596252,514.148621 326.707184,512.696533   C327.080109,507.814087 326.848969,502.885498 326.848969,498.198669   C318.300049,496.377747 316.977417,497.185852 318.184143,503.672852  z"
   id="path51" />
<path
   fill="#183D52"
   opacity="1.000000"
   stroke="none"
   d=" M362.671661,466.186279   C331.703735,466.421356 301.077271,466.500610 270.450775,466.511597   C265.056305,466.513519 263.574005,464.835968 263.566681,459.131500   C263.544037,441.484894 263.551910,423.838226 263.559174,406.191589   C263.561615,400.238647 264.857910,399.049072 270.998108,399.050873   C304.127350,399.060516 337.256561,399.056213 370.385803,399.039337   C376.051117,399.036438 377.492737,400.412415 377.490814,406.056335   C377.486023,420.206726 377.473785,434.357117 377.418945,448.929718   C372.586639,454.903687 367.799866,460.455475 362.671661,466.186279  M306.889404,451.115570   C308.969452,446.358795 311.049530,441.602051 313.367340,436.301605   C314.503082,437.603119 315.054901,438.193176 315.559906,438.820892   C319.604248,443.848602 322.979218,443.778107 326.812347,438.627350   C328.443176,436.436005 330.165405,434.312653 331.357910,432.784119   C334.619965,434.940491 337.163544,437.989716 339.907410,438.182068   C348.510651,438.785248 357.191193,438.387939 365.836975,438.177734   C367.198639,438.144592 368.535034,437.071167 369.883087,436.478699   C368.590179,435.832458 367.311340,434.661194 366.002045,434.626129   C358.186829,434.416718 350.362091,434.562714 342.546722,434.356873   C340.949097,434.314758 338.865479,433.739502 337.877167,432.632294   C331.497101,425.484680 331.576324,425.413818 326.568726,433.632599   C326.136047,434.342804 325.673370,435.036926 325.278503,435.767639   C323.348602,439.338928 321.014313,438.875122 318.519531,436.433807   C317.689514,435.621582 316.942963,434.720886 316.190277,433.833435   C313.464844,430.620178 311.457245,431.438019 309.984741,434.957642   C308.790466,437.812225 307.667084,440.696442 306.137695,444.498718   C303.957123,434.134033 301.974976,424.712555 299.992798,415.291077   C299.340820,415.347198 298.688812,415.403351 298.036804,415.459473   C297.471313,416.934814 296.861206,418.394836 296.347260,419.887909   C291.244080,434.713226 291.248383,434.687897 275.771027,434.807220   C273.844940,434.822052 271.922485,435.303162 269.998383,435.568207   C269.984009,436.149475 269.969635,436.730743 269.955292,437.312012   C271.380707,437.634949 272.797516,438.184570 274.233154,438.239166   C278.886780,438.416046 283.577667,438.107513 288.195953,438.568970   C292.195038,438.968536 293.925323,437.213165 294.941620,433.735962   C295.633179,431.369904 296.720764,429.119598 297.631256,426.817535   C300.086853,434.570496 301.535980,442.030457 303.094238,449.467529   C303.450775,451.169006 303.672577,453.580658 306.889404,451.115570  M362.455536,407.842682   C359.390167,407.842682 356.324829,407.842682 353.320618,407.842682   C353.320618,411.809601 353.320618,414.874695 353.320618,417.999023   C358.426910,417.999023 363.143158,417.999023 368.063721,417.999023   C368.063721,414.561432 368.063721,411.499847 368.063721,408.148346   C366.327026,408.032593 364.876526,407.935913 362.455536,407.842682  z"
   id="path52" />
<path
   fill="#F6F8F8"
   opacity="1.000000"
   stroke="none"
   d=" M396.824890,574.277283   C350.915253,551.264954 345.478363,487.709991 386.213776,455.736023   C420.508850,428.817200 474.991882,433.709229 501.184479,474.899902   C517.966736,501.291809 514.355896,533.976318 496.781769,555.236755   C475.671478,580.775085 448.521545,588.503479 416.585327,581.777222   C424.744598,581.241699 433.001129,581.381714 441.234711,581.011414   C455.423096,580.373352 468.082794,575.366943 479.326172,566.749512   C479.943542,566.276367 480.254364,565.403320 480.707916,564.716492   C455.820282,579.794617 430.095306,583.540710 403.637848,570.721130   C376.851288,557.742126 364.508057,535.256165 364.484863,505.518127   C363.640350,506.684357 363.023926,507.741730 363.122345,508.727753   C363.958405,517.105286 363.713379,525.835449 366.106079,533.761475   C370.963409,549.852112 381.357391,562.294617 395.385345,571.646606   C396.122253,572.137939 396.356567,573.383057 396.824890,574.277283  M495.899078,535.653870   C505.052307,514.778137 502.812408,494.745026 489.691650,476.564209   C465.088623,442.472992 412.837982,440.574097 385.609955,472.645416   C372.510712,488.074738 366.794067,505.765503 373.120300,526.751343   C376.153748,537.572144 381.507690,547.074890 389.956665,554.521729   C410.844543,572.932190 435.191864,575.105652 460.588287,567.522034   C476.650970,562.725525 488.576508,551.890625 495.899078,535.653870  M482.461365,563.593079   C482.461365,563.593079 482.372955,563.461914 482.461365,563.593079  z"
   id="path53" />
<path
   fill="#F6F8F8"
   opacity="1.000000"
   stroke="none"
   d=" M443.311340,430.176025   C443.060211,414.703796 443.186340,399.396240 442.988129,384.092834   C442.961029,382.000977 441.317200,379.930084 440.202698,377.340088   C450.166443,377.340088 459.932953,377.340088 468.823700,377.340088   C468.238098,381.606293 467.381195,385.127289 467.334564,388.658997   C467.130402,404.130432 467.160889,419.605011 467.048950,435.545349   C465.985229,435.718475 464.978943,435.424683 463.684784,434.517151   C463.396942,426.683594 463.396942,419.463715 463.396942,412.177704   C457.465881,412.177704 452.399811,412.177704 446.727966,412.177704   C446.727966,418.551758 446.727966,424.644440 446.727966,430.737122   C445.680725,430.605408 444.633484,430.473694 443.311340,430.176025  z"
   id="path54" />
<path
   fill="#F6F8F8"
   opacity="1.000000"
   stroke="none"
   d=" M405.352966,434.061401   C404.808838,419.788666 404.663818,405.496490 404.383789,391.207001   C404.291595,386.503510 405.819794,381.334839 400.710663,378.251678   C401.365540,377.425232 401.561371,376.956726 401.764465,376.953583   C410.818024,376.812225 419.872711,376.657776 428.924561,376.756927   C429.405670,376.762177 430.375671,379.024170 430.218201,380.104401   C429.939819,382.014191 428.403137,383.814850 428.376678,385.675171   C428.170898,400.138794 428.200287,414.605743 428.058594,429.531342   C427.176117,430.009552 426.391937,430.028107 425.222290,429.523804   C424.836823,423.393005 424.836823,417.785004 424.836823,411.879364   C419.105865,411.879364 414.047424,411.879364 408.250244,411.879364   C408.250244,419.108551 408.250244,426.051910 408.250244,432.995300   C407.399994,433.344574 406.549774,433.693817 405.352966,434.061401  z"
   id="path55" />
<path
   fill="#686F7A"
   opacity="1.000000"
   stroke="none"
   d=" M545.032166,614.984619   C538.812927,610.410522 532.488403,605.971497 526.400696,601.228638   C518.576538,595.132996 510.942444,588.793518 503.180603,581.911743   C506.222107,577.684509 509.309479,574.104553 512.558655,570.337036   C527.135620,581.358032 541.082947,591.902954 555.218872,602.590515   C551.515076,607.096924 548.273621,611.040771 545.032166,614.984619  z"
   id="path56" />
<path
   fill="#F6F8F8"
   opacity="1.000000"
   stroke="none"
   d=" M545.274170,615.207825   C548.273621,611.040771 551.515076,607.096924 555.218872,602.590515   C541.082947,591.902954 527.135620,581.358032 512.558655,570.337036   C509.309479,574.104553 506.222107,577.684509 503.062714,581.591248   C499.239166,579.288452 495.487671,576.658813 491.132324,573.605896   C497.107025,568.637024 502.563660,564.098999 508.372284,559.268188   C524.312012,571.126343 541.919250,584.180603 559.432983,597.359253   C560.540222,598.192383 561.639832,600.070740 561.505859,601.331360   C561.033020,605.780334 550.483154,614.798706 545.274170,615.207825  z"
   id="path57" />
<path
   fill="#ACD8F2"
   opacity="1.000000"
   stroke="none"
   d=" M397.011292,574.556580   C396.356567,573.383057 396.122253,572.137939 395.385345,571.646606   C381.357391,562.294617 370.963409,549.852112 366.106079,533.761475   C363.713379,525.835449 363.958405,517.105286 363.122345,508.727753   C363.023926,507.741730 363.640350,506.684357 364.484863,505.518127   C364.508057,535.256165 376.851288,557.742126 403.637848,570.721130   C430.095306,583.540710 455.820282,579.794617 480.707916,564.716492   C480.254364,565.403320 479.943542,566.276367 479.326172,566.749512   C468.082794,575.366943 455.423096,580.373352 441.234711,581.011414   C433.001129,581.381714 424.744598,581.241699 416.208008,581.639771   C409.677612,579.577393 403.437622,577.206665 397.011292,574.556580  z"
   id="path58" />
<path
   fill="#E7721E"
   opacity="1.000000"
   stroke="none"
   d=" M408.636108,432.990356   C408.250244,426.051910 408.250244,419.108551 408.250244,411.879364   C414.047424,411.879364 419.105865,411.879364 424.836823,411.879364   C424.836823,417.785004 424.836823,423.393005 424.834808,429.462036   C419.562500,430.943909 414.292236,431.964661 408.636108,432.990356  z"
   id="path59" />
<path
   fill="#4E9745"
   opacity="1.000000"
   stroke="none"
   d=" M447.155884,430.822205   C446.727966,424.644440 446.727966,418.551758 446.727966,412.177704   C452.399811,412.177704 457.465881,412.177704 463.396942,412.177704   C463.396942,419.463715 463.396942,426.683594 463.403931,434.362854   C458.135193,433.517273 452.859467,432.212280 447.155884,430.822205  z"
   id="path60" />
<path
   fill="#F6F8F8"
   opacity="1.000000"
   stroke="none"
   d=" M485.322876,446.358093   C497.158722,445.973969 509.140198,445.682587 521.108826,445.955566   C523.197327,446.003204 525.231628,448.427612 527.290894,449.754272   C527.040955,450.367218 526.791016,450.980133 526.541077,451.593079   C515.341064,451.593079 504.141022,451.593079 492.476013,451.657715   C489.828766,450.028992 487.646484,448.335693 485.322876,446.358093  z"
   id="path61" />
<path
   fill="#183D52"
   opacity="1.000000"
   stroke="none"
   d=" M347.939789,517.656372   C346.431335,518.093567 344.941101,518.036377 343.450684,518.029968   C336.618713,518.000793 336.618683,518.005859 337.135681,511.790253   C338.927795,507.417572 347.092834,514.383728 345.766235,505.526917   C346.333466,506.224152 347.733795,507.234528 347.868073,508.391815   C348.204010,511.287445 347.965790,514.249695 347.939789,517.656372  z"
   id="path62" />
<path
   fill="#ACD8F2"
   opacity="1.000000"
   stroke="none"
   d=" M350.439819,491.696167   C348.730316,491.931549 347.273621,491.931549 345.928772,491.931549   C343.712463,483.145111 344.647888,481.872467 353.060699,482.379486   C352.576630,485.483093 351.634674,488.471924 350.439819,491.696167  z"
   id="path63" />
<path
   fill="#F6F8F8"
   opacity="1.000000"
   stroke="none"
   d=" M494.996857,440.808136   C490.556549,440.805542 486.607300,440.805542 482.115417,440.805542   C482.115417,433.926788 482.111877,427.654388 482.116211,421.382019   C482.124115,409.903198 482.227478,398.423096 482.063660,386.946747   C482.034119,384.876862 480.675598,382.853485 480.402191,380.747406   C480.274811,379.766388 481.256042,377.724335 481.766785,377.713806   C490.834839,377.526398 499.907837,377.577942 510.054199,377.577942   C503.823761,386.392853 506.851471,395.304077 506.407257,403.811768   C505.948059,412.605835 506.269348,421.440735 506.253143,430.257782   C506.247070,433.551514 506.252167,436.845215 506.252167,440.810730   C502.380798,440.810730 498.934357,440.810730 494.996857,440.808136  M501.631775,412.749237   C496.538055,412.749237 491.444336,412.749237 486.306824,412.749237   C486.306824,421.776947 486.306824,430.351929 486.306824,439.613068   C490.724823,439.613068 494.847839,439.516266 498.963684,439.646606   C501.770447,439.735504 502.815338,438.606110 502.719086,435.815643   C502.461304,428.343689 502.371155,420.865967 501.631775,412.749237  z"
   id="path64" />
<path
   fill="#F6F8F8"
   opacity="1.000000"
   stroke="none"
   d=" M605.833557,475.728424   C607.729126,468.778503 609.528259,462.223938 611.549683,454.859528   C614.707764,466.953705 617.665100,478.279358 620.764099,490.147339   C614.175232,490.147339 608.166626,490.147339 601.739868,490.147339   C603.128967,485.273895 604.433044,480.698822 605.833557,475.728424  z"
   id="path65" />
<path
   fill="#F9FCF9"
   opacity="1.000000"
   stroke="none"
   d=" M1260.015625,487.364899   C1259.772949,492.107971 1259.882812,496.465302 1259.141846,500.672821   C1257.671387,509.023041 1252.425659,512.327026 1243.979858,510.949524   C1241.281738,510.509460 1239.947021,509.485748 1240.013062,506.473419   C1240.183960,498.680054 1240.005859,490.879761 1240.083374,483.083374   C1240.127441,478.658569 1243.895386,474.675232 1248.378174,474.040405   C1253.110596,473.370209 1256.992310,475.595215 1258.499390,480.121063   C1259.227295,482.306824 1259.502808,484.643219 1260.015625,487.364899  z"
   id="path66" />
<path
   fill="#F6F8F8"
   opacity="1.000000"
   stroke="none"
   d=" M738.995239,495.646240   C741.847168,495.342682 744.314209,495.173401 747.832397,494.931976   C747.414856,499.273315 748.082520,503.702850 746.339844,506.757263   C745.008545,509.090820 740.685547,510.489502 737.576660,510.718048   C735.972351,510.836029 733.338013,507.787964 732.542786,505.657623   C731.174133,501.991119 733.092102,498.886200 736.340332,496.778717   C737.024780,496.334686 737.849976,496.107574 738.995239,495.646240  z"
   id="path67" />
<path
   fill="#F6F8F8"
   opacity="1.000000"
   stroke="none"
   d=" M953.223633,484.004456   C947.590698,484.760010 942.048340,485.046600 936.079224,485.355255   C936.079224,484.165375 936.022705,483.571136 936.087769,482.990509   C936.946899,475.322144 940.491821,470.986633 945.678101,471.234558   C950.925293,471.485382 953.128235,475.034119 953.223633,484.004456  z"
   id="path68" />
<path
   fill="#F6F8F8"
   opacity="1.000000"
   stroke="none"
   d=" M663.185913,586.438416   C660.222107,587.295288 657.543945,587.874695 654.395996,588.555725   C654.395996,584.727112 654.395996,581.673828 654.395996,577.318481   C657.847656,578.403442 661.038147,578.948730 663.630432,580.496155   C664.422424,580.968994 663.570618,584.195496 663.185913,586.438416  z"
   id="path69" />
<path
   fill="#F6F8F8"
   opacity="1.000000"
   stroke="none"
   d=" M654.151123,570.894653   C654.147522,568.982300 654.147522,567.533875 654.147522,565.901855   C658.134277,565.787170 662.328308,564.486023 663.509644,569.366150   C663.804993,570.586121 661.433960,573.358093 659.788208,573.901367   C657.927856,574.515442 654.136230,576.244446 654.151123,570.894653  z"
   id="path70" />
<path
   fill="#F6F8F8"
   opacity="1.000000"
   stroke="none"
   d=" M1042.954102,573.185059   C1043.701782,575.566711 1044.348999,577.575806 1045.106445,579.927002   C1042.296875,579.927002 1039.898926,579.927002 1037.067749,579.927002   C1038.377930,576.040894 1039.606079,572.398010 1041.166870,567.768188   C1041.926270,570.039368 1042.389893,571.425964 1042.954102,573.185059  z"
   id="path71" />
<path
   fill="#F6F8F8"
   opacity="1.000000"
   stroke="none"
   d=" M1094.162354,587.491943   C1091.451172,588.287170 1088.042114,589.398865 1088.171387,585.901245   C1088.235840,584.155579 1092.138672,582.551941 1094.305298,580.884094   C1094.870361,581.329041 1095.435547,581.773987 1096.000610,582.218933   C1095.504395,583.896362 1095.008179,585.573853 1094.162354,587.491943  z"
   id="path72" />
<path
   fill="#F6F8F8"
   opacity="1.000000"
   stroke="none"
   d=" M992.296997,575.579956   C992.687073,578.963379 993.422363,582.138672 992.822510,585.037781   C992.122009,588.423645 989.111877,589.081360 986.042480,587.948120   C982.670410,586.703125 981.225098,580.439270 983.245850,576.486877   C984.909119,573.233765 987.960388,572.805115 992.296997,575.579956  z"
   id="path73" />
<path
   fill="#F6F8F8"
   opacity="1.000000"
   stroke="none"
   d=" M878.056763,587.453979   C876.119202,587.754700 874.505920,587.796692 872.892639,587.838684   C873.014221,586.225342 872.535767,583.846985 873.394531,583.173584   C874.766357,582.097656 877.026489,582.154297 879.888977,581.513062   C879.238220,583.965393 878.809631,585.580261 878.056763,587.453979  z"
   id="path74" />
<path
   fill="#F6F8F8"
   opacity="1.000000"
   stroke="none"
   d=" M734.874390,574.043274   C739.575806,573.410339 739.575806,573.410339 741.279968,578.010620   C738.482361,578.010620 735.848022,578.010620 732.406250,578.010620   C733.231140,576.546509 733.884155,575.387390 734.874390,574.043274  z"
   id="path75" />
<path
   fill="#ACD8F2"
   opacity="1.000000"
   stroke="none"
   d=" M1172.816650,574.373291   C1173.489380,575.658081 1173.887207,576.665894 1174.505859,578.233154   C1171.366455,578.233154 1168.733276,578.233154 1166.094238,578.228516   C1166.468262,573.456970 1167.609253,572.727173 1172.816650,574.373291  z"
   id="path76" />
<path
   fill="#4E9745"
   opacity="1.000000"
   stroke="none"
   d=" M282.914001,495.877991   C282.917389,498.495361 282.917389,500.634338 282.917389,503.130737   C277.125427,503.130737 271.732361,503.130737 266.042725,503.130737   C266.042725,496.182648 266.042725,489.595428 266.042725,482.731079   C271.561493,482.731079 276.954956,482.731079 282.910645,482.731079   C282.910645,487.174072 282.910645,491.286835 282.914001,495.877991  z"
   id="path77" />
<path
   fill="#8D929C"
   opacity="1.000000"
   stroke="none"
   d=" M309.641724,483.597412   C309.790009,490.159180 309.790009,496.288727 309.790009,503.257874   C304.581451,503.257874 299.822693,503.406464 295.090118,503.121033   C294.237183,503.069611 292.844513,501.257263 292.804382,500.215424   C292.580750,494.412109 292.696960,488.595673 292.696960,481.557953   C298.582397,482.121124 304.037933,482.643188 309.641724,483.597412  z"
   id="path78" />
<path
   fill="#B3CF8A"
   opacity="1.000000"
   stroke="none"
   d=" M324.123962,482.058685   C326.750763,482.055145 328.898956,482.049652 331.047150,482.050690   C339.639587,482.054779 339.676697,482.100403 338.481079,491.800262   C332.549225,491.800262 326.504913,491.922119 320.476990,491.662933   C319.617767,491.625977 318.368866,489.840363 318.127808,488.690552   C317.734161,486.812927 318.021454,484.792480 318.021454,482.316437   C320.136810,482.219879 321.891113,482.139801 324.123962,482.058685  z"
   id="path79" />
<path
   fill="#404040"
   opacity="1.000000"
   stroke="none"
   d=" M317.921143,503.344421   C316.977417,497.185852 318.300049,496.377747 326.848969,498.198669   C326.848969,502.885498 327.080109,507.814087 326.707184,512.696533   C326.596252,514.148621 324.789154,515.471130 323.759247,516.853027   C322.221558,515.487915 319.905151,514.391052 319.321777,512.697266   C318.355438,509.891357 318.504822,506.701141 317.921143,503.344421  z"
   id="path80" />
<path
   fill="#EAD255"
   opacity="1.000000"
   stroke="none"
   d=" M306.703491,451.412567   C303.672577,453.580658 303.450775,451.169006 303.094238,449.467529   C301.535980,442.030457 300.086853,434.570496 297.631256,426.817535   C296.720764,429.119598 295.633179,431.369904 294.941620,433.735962   C293.925323,437.213165 292.195038,438.968536 288.195953,438.568970   C283.577667,438.107513 278.886780,438.416046 274.233154,438.239166   C272.797516,438.184570 271.380707,437.634949 269.955292,437.312012   C269.969635,436.730743 269.984009,436.149475 269.998383,435.568207   C271.922485,435.303162 273.844940,434.822052 275.771027,434.807220   C291.248383,434.687897 291.244080,434.713226 296.347260,419.887909   C296.861206,418.394836 297.471313,416.934814 298.036804,415.459473   C298.688812,415.403351 299.340820,415.347198 299.992798,415.291077   C301.974976,424.712555 303.957123,434.134033 306.137695,444.498718   C307.667084,440.696442 308.790466,437.812225 309.984741,434.957642   C311.457245,431.438019 313.464844,430.620178 316.190277,433.833435   C316.942963,434.720886 317.689514,435.621582 318.519531,436.433807   C321.014313,438.875122 323.348602,439.338928 325.278503,435.767639   C325.673370,435.036926 326.136047,434.342804 326.568726,433.632599   C331.576324,425.413818 331.497101,425.484680 337.877167,432.632294   C338.865479,433.739502 340.949097,434.314758 342.546722,434.356873   C350.362091,434.562714 358.186829,434.416718 366.002045,434.626129   C367.311340,434.661194 368.590179,435.832458 369.883118,436.478699   C368.535034,437.071167 367.198639,438.144592 365.836975,438.177734   C357.191193,438.387939 348.510651,438.785248 339.907410,438.182068   C337.163544,437.989716 334.619965,434.940491 331.357910,432.784119   C330.165405,434.312653 328.443176,436.436005 326.812347,438.627350   C322.979218,443.778107 319.604248,443.848602 315.559906,438.820892   C315.054901,438.193176 314.503082,437.603119 313.367340,436.301605   C311.049530,441.602051 308.969452,446.358795 306.703491,451.412567  z"
   id="path81" />
<path
   fill="#81B541"
   opacity="1.000000"
   stroke="none"
   d=" M362.940796,407.840942   C364.876526,407.935913 366.327026,408.032593 368.063721,408.148346   C368.063721,411.499847 368.063721,414.561432 368.063721,417.999023   C363.143158,417.999023 358.426910,417.999023 353.320618,417.999023   C353.320618,414.874695 353.320618,411.809601 353.320618,407.842682   C356.324829,407.842682 359.390167,407.842682 362.940796,407.840942  z"
   id="path82" />
<path
   fill="#0C782E"
   opacity="1.000000"
   stroke="none"
   d=" M495.430084,536.142517   C488.576508,551.890625 476.650970,562.725525 460.588287,567.522034   C435.191864,575.105652 410.844543,572.932190 389.956665,554.521729   C381.507690,547.074890 376.153748,537.572144 373.496185,526.372070   C376.125549,523.697144 378.379028,521.401611 380.806915,519.423950   C382.322815,523.501831 385.274353,524.971985 388.988831,525.712585   C390.956726,528.162231 392.754730,530.452271 394.906799,532.338257   C403.682037,540.028503 413.305786,546.530212 424.761688,549.240906   C431.795715,550.905212 439.155579,551.348877 446.402893,551.878967   C449.328918,552.092957 452.904358,552.159912 454.348450,547.949097   C455.256439,547.521667 455.790924,547.129272 456.389191,546.913513   C466.843781,543.142273 469.984711,534.211914 464.256042,524.679077   C463.366486,523.198669 462.796143,521.526428 462.479980,519.970581   C467.577911,522.153198 472.328552,524.198486 476.955658,526.492798   C482.036591,529.012085 487.003723,531.760803 492.275696,534.600647   C493.497375,535.241943 494.463715,535.692261 495.430084,536.142517  z"
   id="path83" />
<path
   fill="#158536"
   opacity="1.000000"
   stroke="none"
   d=" M380.632507,519.106079   C378.379028,521.401611 376.125549,523.697144 373.504700,525.998169   C366.794067,505.765503 372.510712,488.074738 385.609955,472.645416   C412.837982,440.574097 465.088623,442.472992 489.691650,476.564209   C502.812408,494.745026 505.052307,514.778137 495.664581,535.898193   C494.463715,535.692261 493.497375,535.241943 492.404419,534.223633   C494.062500,528.006348 496.494843,522.469177 497.496002,516.684387   C499.530884,504.926544 497.952118,493.670990 490.102905,483.606018   C480.702881,467.483521 466.489502,458.884308 448.696472,454.735016   C413.648682,449.083862 386.018372,470.335266 381.437622,487.527924   C382.887146,486.592407 384.029358,485.611481 385.351379,485.067017   C386.819733,484.462189 388.452087,484.255493 390.367035,483.979370   C396.329742,486.448730 401.938416,488.814056 407.358887,491.485260   C405.578247,495.323486 403.135956,498.731567 402.596619,502.418030   C401.825714,507.687531 398.056122,511.145081 392.955322,509.677704   C385.803864,507.620453 383.247345,508.879364 380.002563,516.094116   C379.996796,517.242126 380.308502,518.195923 380.601715,519.134277   C380.583252,519.118896 380.632507,519.106079 380.632507,519.106079  z"
   id="path84" />
<path
   fill="#ACD8F2"
   opacity="1.000000"
   stroke="none"
   d=" M482.417175,563.527466   C482.372955,563.461914 482.461365,563.593079 482.417175,563.527466  z"
   id="path85" />
<path
   fill="#E7721E"
   opacity="1.000000"
   stroke="none"
   d=" M501.923096,413.069885   C502.371155,420.865967 502.461304,428.343689 502.719086,435.815643   C502.815338,438.606110 501.770447,439.735504 498.963684,439.646606   C494.847839,439.516266 490.724823,439.613068 486.306824,439.613068   C486.306824,430.351929 486.306824,421.776947 486.306824,412.749237   C491.444336,412.749237 496.538055,412.749237 501.923096,413.069885  z"
   id="path86" />
<path
   fill="#F9FCF9"
   opacity="1.000000"
   stroke="none"
   d=" M380.320007,515.899780   C383.247345,508.879364 385.803864,507.620453 392.955322,509.677704   C398.056122,511.145081 401.825714,507.687531 402.596619,502.418030   C403.135956,498.731567 405.578247,495.323486 407.707886,491.402893   C416.835663,487.778625 420.375000,488.654175 426.860168,495.268036   C427.745789,496.171204 429.424835,496.960358 430.599365,496.799683   C435.325867,496.153015 439.998474,495.112488 444.721619,494.211700   C444.827026,492.944763 444.931458,492.134552 444.956390,491.321899   C445.338287,478.883331 453.655487,470.886292 465.966919,471.121857   C475.232269,471.299133 481.582306,475.838287 485.511932,484.518250   C489.713898,497.993286 481.064789,510.589020 467.785889,511.073120   C462.065765,511.281616 460.414581,513.845520 462.078186,519.942932   C462.796143,521.526428 463.366486,523.198669 464.256042,524.679077   C469.984711,534.211914 466.843781,543.142273 456.389191,546.913513   C455.790924,547.129272 455.256439,547.521667 453.996735,547.767334   C442.701996,546.486145 435.608826,539.608521 438.565887,531.500977   C441.022430,524.765747 438.047241,522.251770 433.788269,519.147583   C431.373108,517.387329 429.245056,515.170898 426.674805,513.710693   C425.261932,512.908081 422.947021,512.607483 421.477539,513.189087   C416.616943,515.112671 412.189423,514.992004 407.723602,512.162598   C404.390747,510.050934 397.640472,512.746399 397.155182,516.548096   C396.504791,521.643005 393.517059,524.108765 388.981689,525.367249   C385.274353,524.971985 382.322815,523.501831 380.806946,519.423950   C380.632507,519.106079 380.583252,519.118896 380.604065,518.724365   C380.523254,517.519775 380.421631,516.709778 380.320007,515.899780  M457.788757,513.635132   C458.773346,511.593109 458.657440,510.365021 456.352142,508.841187   C452.843414,506.521820 449.976044,503.248322 446.726440,500.510437   C445.829926,499.755096 444.456024,498.901978 443.451630,499.058594   C439.883148,499.614929 436.379608,500.587830 432.124939,501.420929   C427.643982,503.038483 426.477417,508.001312 429.898102,510.992279   C431.646637,512.521179 433.454468,513.982117 435.233154,515.476562   C439.300842,518.894531 443.012970,523.563354 449.196716,519.172485   C449.785797,518.754150 450.850220,518.759827 451.633484,518.902039   C455.553436,519.613708 457.063660,517.605652 457.788757,513.635132  z"
   id="path87" />
<path
   fill="#158536"
   opacity="1.000000"
   stroke="none"
   d=" M388.988831,525.712585   C393.517059,524.108765 396.504791,521.643005 397.155182,516.548096   C397.640472,512.746399 404.390747,510.050934 407.723602,512.162598   C412.189423,514.992004 416.616943,515.112671 421.477539,513.189087   C422.947021,512.607483 425.261932,512.908081 426.674805,513.710693   C429.245056,515.170898 431.373108,517.387329 433.788269,519.147583   C438.047241,522.251770 441.022430,524.765747 438.565887,531.500977   C435.608826,539.608521 442.701996,546.486145 453.652954,547.884521   C452.904358,552.159912 449.328918,552.092957 446.402893,551.878967   C439.155579,551.348877 431.795715,550.905212 424.761688,549.240906   C413.305786,546.530212 403.682037,540.028503 394.906799,532.338257   C392.754730,530.452271 390.956726,528.162231 388.988831,525.712585  z"
   id="path88" />
<path
   fill="#79AE38"
   opacity="1.000000"
   stroke="none"
   d=" M462.479980,519.970581   C460.414581,513.845520 462.065765,511.281616 467.785889,511.073120   C481.064789,510.589020 489.713898,497.993286 485.995850,484.490112   C487.704315,484.005096 488.995331,483.955048 490.286316,483.904999   C497.952118,493.670990 499.530884,504.926544 497.496002,516.684387   C496.494843,522.469177 494.062500,528.006348 492.149109,534.032593   C487.003723,531.760803 482.036591,529.012085 476.955658,526.492798   C472.328552,524.198486 467.577911,522.153198 462.479980,519.970581  z"
   id="path89" />
<path
   fill="#81B541"
   opacity="1.000000"
   stroke="none"
   d=" M490.102905,483.606018   C488.995331,483.955048 487.704315,484.005096 485.929382,484.083313   C481.582306,475.838287 475.232269,471.299133 465.966919,471.121857   C453.655487,470.886292 445.338287,478.883331 444.956390,491.321899   C444.931458,492.134552 444.827026,492.944763 444.721619,494.211700   C439.998474,495.112488 435.325867,496.153015 430.599365,496.799683   C429.424835,496.960358 427.745789,496.171204 426.860168,495.268036   C420.375000,488.654175 416.835663,487.778625 407.896118,491.097046   C401.938416,488.814056 396.329742,486.448730 390.361786,483.644104   C390.654144,482.132050 391.305756,481.059296 392.056396,480.176575   C392.441925,480.236572 392.728455,480.106506 393.011414,479.994263   C393.007874,480.012054 392.972046,480.006195 393.354950,480.036285   C394.536194,479.857269 395.401245,479.781281 396.123016,479.419464   C411.998047,471.460724 428.610687,468.150421 446.371246,470.683258   C448.831360,471.034088 451.871399,469.476288 454.192108,468.062134   C456.702118,466.532654 457.036316,464.246918 453.621552,463.027618   C451.123657,462.135651 448.524780,461.526550 446.023193,460.461609   C447.052948,458.424652 448.030426,456.717468 449.007935,455.010284   C466.489502,458.884308 480.702881,467.483521 490.102905,483.606018  z"
   id="path90" />
<path
   fill="#79AE38"
   opacity="1.000000"
   stroke="none"
   d=" M448.696472,454.735016   C448.030426,456.717468 447.052948,458.424652 445.611511,460.466492   C424.360046,457.977570 406.923401,464.257599 392.972046,480.006195   C392.972046,480.006195 393.007874,480.012054 392.746857,479.984619   C392.309662,479.966949 392.133514,479.976715 391.957367,479.986511   C391.305756,481.059296 390.654144,482.132050 390.007782,483.540100   C388.452087,484.255493 386.819733,484.462189 385.351379,485.067017   C384.029358,485.611481 382.887146,486.592407 381.437622,487.527924   C386.018372,470.335266 413.648682,449.083862 448.696472,454.735016  z"
   id="path91" />
<path
   fill="#0C782E"
   opacity="1.000000"
   stroke="none"
   d=" M380.002563,516.094116   C380.421631,516.709778 380.523254,517.519775 380.622559,518.739746   C380.308502,518.195923 379.996796,517.242126 380.002563,516.094116  z"
   id="path92" />
<path
   fill="#158536"
   opacity="1.000000"
   stroke="none"
   d=" M457.324554,514.070129   C457.063660,517.605652 455.553436,519.613708 451.633484,518.902039   C450.850220,518.759827 449.785797,518.754150 449.196716,519.172485   C443.012970,523.563354 439.300842,518.894531 435.233154,515.476562   C433.454468,513.982117 431.646637,512.521179 429.898102,510.992279   C426.477417,508.001312 427.643982,503.038483 432.699951,501.670776   C441.291473,505.970428 449.308014,510.020264 457.324554,514.070129  z"
   id="path93" />
<path
   fill="#81B541"
   opacity="1.000000"
   stroke="none"
   d=" M457.556641,513.852661   C449.308014,510.020264 441.291473,505.970428 433.063202,501.661743   C436.379608,500.587830 439.883148,499.614929 443.451630,499.058594   C444.456024,498.901978 445.829926,499.755096 446.726440,500.510437   C449.976044,503.248322 452.843414,506.521820 456.352142,508.841187   C458.657440,510.365021 458.773346,511.593109 457.556641,513.852661  z"
   id="path94" />
<path
   fill="#B3CF8A"
   opacity="1.000000"
   stroke="none"
   d=" M393.354950,480.036285   C406.923401,464.257599 424.360046,457.977570 445.559235,460.796204   C448.524780,461.526550 451.123657,462.135651 453.621552,463.027618   C457.036316,464.246918 456.702118,466.532654 454.192108,468.062134   C451.871399,469.476288 448.831360,471.034088 446.371246,470.683258   C428.610687,468.150421 411.998047,471.460724 396.123016,479.419464   C395.401245,479.781281 394.536194,479.857269 393.354950,480.036285  z"
   id="path95" />
<path
   fill="#B3CF8A"
   opacity="1.000000"
   stroke="none"
   d=" M392.056396,480.176575   C392.133514,479.976715 392.309662,479.966949 392.750427,479.966797   C392.728455,480.106506 392.441925,480.236572 392.056396,480.176575  z"
   id="path96" />
</svg>
